<?xml version="1.0" encoding="utf-8"?>
<!-- Generator: Adobe Illustrator 22.0.1, SVG Export Plug-In . SVG Version: 6.00 Build 0)  -->
<svg version="1.1" id="Layer_1" xmlns="http://www.w3.org/2000/svg" xmlns:xlink="http://www.w3.org/1999/xlink" x="0px" y="0px"
	 viewBox="0 0 24 40" style="enable-background:new 0 0 24 40;" xml:space="preserve">
<style type="text/css">
	.st0{fill:#00AC6A;}
</style>
<path id="Прямоугольник_6" class="st0" d="M12,7C5.4,7,0.1,12.2,0,18.8v9.4C0.1,34.8,5.4,40,12,40
	c6.6,0.1,11.9-5.2,12-11.8v-9.4C23.9,12.2,18.6,7,12,7z M21.7,28.2c-0.1,5.3-4.4,9.6-9.7,9.6c-5.3,0-9.7-4.3-9.7-9.6v-9.4
	c0.1-5.4,4.5-9.7,9.9-9.6c5.3,0.1,9.5,4.3,9.6,9.6V28.2L21.7,28.2z M11,0h2v7h-2V0z"/>
<path id="Прямоугольник_скругл._углы_1" d="M12,15.7L12,15.7c0.6,0,1,0.4,1,1v4c0,0.6-0.4,1-1,1l0,0
	c-0.6,0-1-0.4-1-1v-4C11,16.1,11.4,15.7,12,15.7z"/>
</svg>
